<svg width="73" height="72" viewBox="0 0 73 72" fill="none" xmlns="http://www.w3.org/2000/svg">
<circle cx="36.3158" cy="36" r="36" fill="#F73E4B"/>
<path d="M49.6725 45.2044C48.4955 45.2044 47.4077 44.7117 46.5874 43.832C45.7849 42.9699 45.3569 41.8263 45.3569 40.6123H45.3748V40.5947H45.3569H45.3748C45.3391 40.2605 45.3569 39.7854 45.3569 39.152C45.3569 38.2372 45.0716 36.988 44.2335 36.1611C43.5915 35.5277 42.682 35.1934 41.5407 35.1934C37.8315 35.1934 36.6724 35.1758 36.5832 35.1758C36.5119 35.1758 35.3706 35.1582 31.6078 35.1582C30.4309 35.1582 29.4857 35.4925 28.8438 36.1435C27.8273 37.1639 27.7559 38.6242 27.7559 39.0465C27.7559 39.6799 27.7559 40.1373 27.7381 40.4892H27.7559H27.7381V40.5068H27.7559C27.7559 43.0403 25.7943 45.0988 23.4047 45.0988H12.6872C10.5294 45.0988 8.33601 43.445 8.31818 39.7854C8.26468 35.2814 9.51298 31.7626 11.9917 29.2994C14.7737 26.5372 19.0892 25.1296 24.7957 25.1296C30.9124 25.1296 34.0688 25.1296 35.7094 25.2352L36.5297 25.1824V25.3056C36.5654 25.3056 36.601 25.3232 36.6367 25.3232L36.6545 25.1824C36.815 25.2 38.1168 25.2176 48.2459 25.2176C53.881 25.2176 58.1252 26.6075 60.8893 29.3522C63.3681 31.8154 64.6342 35.3517 64.5985 39.8558C64.5807 43.5154 62.4051 45.1692 60.2652 45.1692L49.6725 45.2044ZM46.6409 40.6123H47.1402C47.1402 41.3865 47.4077 42.1078 47.907 42.6357C48.3885 43.1459 49.0127 43.4274 49.6725 43.4274H60.3008C61.8345 43.4274 62.8331 42.0199 62.8509 39.8734C62.8688 35.7916 61.8166 32.7654 59.6589 30.619C57.2336 28.2262 53.3995 26.9946 48.2637 26.9946C42.2362 26.9946 39.0976 26.9946 37.4748 26.889L36.6545 26.9418V26.8187C36.6189 26.8187 36.5832 26.8011 36.5475 26.8011L36.5297 26.9418C36.3692 26.9242 35.0852 26.9066 24.8135 26.9066C19.6063 26.9066 15.7188 28.1382 13.2757 30.5486C11.1179 32.6951 10.0658 35.7036 10.0836 39.7678C10.1015 41.9319 11.1001 43.3218 12.6694 43.3218H23.3869C24.8135 43.3218 25.9548 42.055 25.9548 40.4892H26.3115L25.9548 40.4716C25.9548 40.4188 25.9548 40.1549 25.9548 39.0289C25.9548 38.4307 26.0618 36.3722 27.5598 34.8767C28.5584 33.8914 29.9137 33.3812 31.59 33.3812C35.4954 33.3812 36.601 33.3988 36.601 33.3988C36.6189 33.3988 37.7067 33.4164 41.5229 33.4164C43.1635 33.4164 44.501 33.909 45.4818 34.8943C47.0154 36.4074 47.1224 38.5363 47.1224 39.1344C47.1224 40.2605 47.1224 40.5244 47.1224 40.5772L46.6409 40.6123Z" fill="white"/>
</svg>
