<svg width="72" height="72" viewBox="0 0 72 72" fill="none" xmlns="http://www.w3.org/2000/svg">
<circle cx="36" cy="36" r="36" fill="#6B6B6B"/>
<path d="M48.5329 28.7012V36.4661C48.5329 42.8968 43.2147 48.1216 36.6692 48.1216C30.1238 48.1216 24.8056 42.8968 24.8056 36.4661V28.7012H23.2347V36.4661C23.2347 43.4916 28.8474 49.2309 35.8838 49.6328V58.2177H27.1783V59.7771H46.1438V58.2177H37.4547V49.6328C44.491 49.2309 50.1038 43.4916 50.1038 36.4661V28.7012H48.5329Z" fill="white" stroke="white" stroke-width="0.25" stroke-miterlimit="10"/>
<path d="M36.6692 43.4594C40.5965 43.4594 43.7874 40.3244 43.7874 36.4661V20.1644C43.7874 16.3061 40.5965 13.1711 36.6692 13.1711C32.7419 13.1711 29.551 16.29 29.551 20.1644V36.4661C29.551 40.3244 32.7419 43.4594 36.6692 43.4594ZM31.1383 20.1644C31.1383 17.1742 33.6256 14.7306 36.6692 14.7306C39.7128 14.7306 42.2001 17.1742 42.2001 20.1644V36.4661C42.2001 39.4563 39.7128 41.8999 36.6692 41.8999C33.6256 41.8999 31.1383 39.4563 31.1383 36.4661V20.1644Z" fill="white" stroke="white" stroke-width="0.25" stroke-miterlimit="10"/>
</svg>
