<svg width="72" height="72" viewBox="0 0 72 72" fill="none" xmlns="http://www.w3.org/2000/svg">
<circle cx="36" cy="36" r="36" fill="#6B6B6B"/>
<path d="M48.6182 28.6365V36.491C48.6182 43.0365 43.2182 48.2728 36.8364 48.2728C30.4545 48.2728 25.0545 42.8728 25.0545 36.491V28.6365H23.4182V36.491C23.4182 43.691 28.9818 49.4183 36.0182 49.9092V58.5819H27.1818V60.2183H46.1636V58.5819H37.4909V49.9092C44.5273 49.4183 50.0909 43.691 50.0909 36.491V28.6365H48.6182Z" fill="white" stroke="white" stroke-width="0.25" stroke-miterlimit="10"/>
<path d="M36.6727 43.5273C40.6 43.5273 43.7091 40.4182 43.7091 36.4909V19.8C43.7091 15.8728 40.6 12.7637 36.6727 12.7637C32.7455 12.7637 29.6364 15.8728 29.6364 19.8V36.3273C29.6364 40.4182 32.7455 43.5273 36.6727 43.5273ZM31.1091 19.8C31.1091 16.6909 33.5636 14.2364 36.6727 14.2364C39.7818 14.2364 42.2364 16.6909 42.2364 19.8V36.3273C42.2364 39.4364 39.7818 41.8909 36.6727 41.8909C33.5636 41.8909 31.1091 39.4364 31.1091 36.3273V19.8Z" fill="white" stroke="white" stroke-width="0.25" stroke-miterlimit="10"/>
<path d="M49.3687 12.7398L21.845 51.3962L23.178 52.3453L50.7017 13.6889L49.3687 12.7398Z" fill="white" stroke="white" stroke-width="0.25" stroke-miterlimit="10"/>
</svg>
